<svg id="Layer_1" data-name="Layer 1" xmlns="http://www.w3.org/2000/svg" viewBox="0 0 720 720"><title>SpacePineappleLogo</title><path d="M435.31,330.81a68.1,68.1,0,0,0-29.67-24.24,261.67,261.67,0,0,1,22.59-27.76,5.57,5.57,0,0,0,.82-6.95,5.51,5.51,0,0,0-6.67-2.17c-2.45.81-4.77,1.9-7.22,2.85a335.39,335.39,0,0,1,28.59-35.25,5.53,5.53,0,0,0-5.85-9.12,204.84,204.84,0,0,0-19.06,8c17.7-25.32,32.4-40.16,32.67-40.43a5.53,5.53,0,0,0-5.85-9.12,270.82,270.82,0,0,0-36.08,16.61l19.33-38.53a5.36,5.36,0,0,0-1.09-6.39,5.52,5.52,0,0,0-6.53-.82,318.59,318.59,0,0,0-29.54,18.24,185.12,185.12,0,0,0-22.6-40.43,5.86,5.86,0,0,0-4.49-2.31,5.29,5.29,0,0,0-4.49,2.31,184.52,184.52,0,0,0-22.6,40.29A338.07,338.07,0,0,0,308,157.38a5.56,5.56,0,0,0-6.53.82,5.4,5.4,0,0,0-1.09,6.4l17.15,34.3a268.88,268.88,0,0,0-28-12.25,5.81,5.81,0,0,0-6.67,2.18,5.56,5.56,0,0,0,.82,6.94c.27.27,15,15,32.67,40.43a204.84,204.84,0,0,0-19.06-8,5.81,5.81,0,0,0-6.67,2.18,5.39,5.39,0,0,0,.82,6.94c.13.13,12.93,13.07,28.58,35.25-2.45-1-4.76-1.9-7.21-2.85a5.82,5.82,0,0,0-6.67,2.17,5.57,5.57,0,0,0,.82,6.95,224.34,224.34,0,0,1,21.23,25.86,68.61,68.61,0,0,0-34.3,26.14c-12.12,17.56-18,41.79-18,74.32s5.85,56.9,18,74.32c14.56,21.24,38.38,31.86,70.65,31.86s56.08-10.76,70.64-31.86c12.12-17.56,18-41.79,18-74.32S447.29,348.37,435.31,330.81ZM289.93,372.19l2,1.63c3.81,3.27,8.44,7.35,17.43,7.35s13.61-4.08,17.42-7.35c3.27-2.72,5.31-4.63,10.21-4.63s6.94,1.91,10.21,4.63c3.81,3.27,8.44,7.35,17.42,7.35s13.75-4.08,17.43-7.35c3.26-2.72,5.3-4.63,10.21-4.63s6.94,1.91,10.2,4.63c3.82,3.27,8.44,7.35,17.43,7.35s13.75-4.08,17.42-7.35c.82-.68,1.36-1.22,2-1.77a175.86,175.86,0,0,1,2.45,22.19,26,26,0,0,0-11.7,6.67c-3.27,2.72-5.31,4.63-10.21,4.63s-6.94-1.91-10.21-4.63c-3.81-3.27-8.44-7.35-17.42-7.35s-13.75,4.08-17.43,7.35c-3.27,2.72-5.31,4.63-10.21,4.63s-6.94-1.91-10.21-4.63c-3.81-3.27-8.44-7.35-17.42-7.35s-13.61,4.08-17.43,7.35c-3.26,2.72-5.3,4.63-10.2,4.63s-6.95-1.91-10.21-4.63c-2.86-2.45-6.27-5.31-11.71-6.67A175.18,175.18,0,0,1,289.93,372.19Zm96.24-71.47A181.34,181.34,0,0,1,404,290c-3,3.67-6,7.89-9.25,12.79A82.84,82.84,0,0,0,386.17,300.72Zm9.26-18.65a190.25,190.25,0,0,0-25.6,17c-1.49-.14-3-.14-4.62-.14-2.45-1.9-5-3.81-7.63-5.72a179.93,179.93,0,0,1,19.33-17.83,217.79,217.79,0,0,1,42.61-27.09A390.33,390.33,0,0,0,395.43,282.07Zm3-35a222.53,222.53,0,0,0-30.76,21.64c-3.54-3-7.63-6.26-12.25-9.53a187.62,187.62,0,0,1,22.73-21.5,249.49,249.49,0,0,1,49.28-31A390.58,390.58,0,0,0,398.42,247.09Zm-6.53-33.22c-2.18,1.37-4.36,3-6.4,4.36-3.54-4.08-7.76-8.71-12.8-13.61a278.8,278.8,0,0,1,37.85-28.18Zm-27.23-65.74a154.72,154.72,0,0,1,17.7,34.16,207.78,207.78,0,0,0-17.7,14.7c-5.17-4.76-11.16-9.66-17.69-14.7A154.24,154.24,0,0,1,364.66,148.13Zm-46,28.17c27.77,17.29,46.28,35,57.85,48.33-3.26,2.45-6.26,4.9-9,7.21a256.73,256.73,0,0,0-32.94-23.41ZM307.9,206.66a247.39,247.39,0,0,1,51.18,32.81A156,156,0,0,0,346,252.94c-3-1.9-6-3.81-9.25-5.72A370.14,370.14,0,0,0,307.9,206.66Zm7.89,41.52a231.47,231.47,0,0,1,43.43,27.9,141,141,0,0,0-10.76,11c-2.86-1.77-5.71-3.4-8.44-5C331.18,268.19,322.6,256.89,315.79,248.18ZM331.18,290A177.62,177.62,0,0,1,347.92,300a76.26,76.26,0,0,0-8.31,1.36C336.62,297.18,333.9,293.37,331.18,290Zm33.48,20.14c26.82,0,46.42,7.9,59.08,24a15.14,15.14,0,0,1-3.81.55,13.23,13.23,0,0,1-4.22-.68,5.59,5.59,0,1,0-3.54,10.61,24.53,24.53,0,0,0,7.89,1.23,23.7,23.7,0,0,0,10.08-2,88.48,88.48,0,0,1,6.8,17.15,32.49,32.49,0,0,0-6.67,4.76c-3.26,2.73-5.3,4.63-10.21,4.63s-6.94-1.9-10.2-4.63c-3.82-3.26-8.44-7.35-17.43-7.35s-13.75,4.09-17.42,7.35c-3.27,2.73-5.31,4.63-10.21,4.63s-6.94-1.9-10.21-4.63c-3.81-3.26-8.44-7.35-17.43-7.35s-13.61,4.09-17.42,7.35c-3.27,2.73-5.31,4.63-10.21,4.63s-6.94-1.9-10.21-4.63a32.21,32.21,0,0,0-6.67-4.76,94.17,94.17,0,0,1,6.81-17.15,22.77,22.77,0,0,0,10.07,2c9,0,13.61-4.08,17.43-7.35,3.26-2.72,5.3-4.63,10.2-4.63s6.95,1.91,10.21,4.63c3.82,3.27,8.44,7.35,17.43,7.35s13.75-4.08,17.42-7.35c3.27-2.72,5.31-4.63,10.21-4.63a5.58,5.58,0,0,0,0-11.16c-9,0-13.75,4.08-17.42,7.35-3.27,2.72-5.31,4.63-10.21,4.63s-6.94-1.91-10.21-4.63c-3.81-3.27-8.44-7.35-17.43-7.35s-13.61,4.08-17.42,7.35c-3.27,2.72-5.31,4.63-10.21,4.63a28.14,28.14,0,0,1-3.81-.41C318.24,317.74,337.85,310.11,364.66,310.11ZM316.2,486.94c4.77-1.36,7.9-4.08,10.62-6.26,3.27-2.72,5.31-4.63,10.21-4.63s6.94,1.91,10.21,4.63c3.81,3.27,8.44,7.35,17.42,7.35s13.75-4.08,17.43-7.35c3.26-2.72,5.3-4.63,10.21-4.63s6.94,1.91,10.2,4.63c2.73,2.31,5.72,5,10.62,6.26-12.25,9.12-28.18,13.48-48.46,13.48S328.45,496.06,316.2,486.94ZM424,476.19a17.54,17.54,0,0,1-4.08.54c-4.9,0-6.94-1.9-10.21-4.63-3.81-3.26-8.44-7.35-17.42-7.35s-13.75,4.09-17.43,7.35c-3.27,2.73-5.31,4.63-10.21,4.63s-6.94-1.9-10.21-4.63c-3.81-3.26-8.44-7.35-17.42-7.35s-13.61,4.09-17.43,7.35c-3.26,2.73-5.3,4.63-10.2,4.63a17.37,17.37,0,0,1-3.95-.54h-.14c-6.53-8.44-11.16-18.92-14.29-31.86.27.28.54.41.82.68,3.81,3.27,8.43,7.35,17.42,7.35a32.53,32.53,0,0,0,3.81-.27,5.51,5.51,0,1,0-1.63-10.89,10.7,10.7,0,0,1-2.18.14c-4.9,0-6.94-1.91-10.21-4.63-2.59-2.18-5.72-4.9-10.48-6.26a219.17,219.17,0,0,1-1.36-24.23,20.33,20.33,0,0,1,4.63,3.4c3.81,3.27,8.43,7.35,17.42,7.35s13.61-4.08,17.42-7.35C330,406.9,332,405,336.89,405s6.94,1.91,10.21,4.63c3.81,3.27,8.44,7.35,17.43,7.35s13.74-4.08,17.42-7.35c3.27-2.72,5.31-4.63,10.21-4.63s6.94,1.91,10.21,4.63c3.81,3.27,8.44,7.35,17.42,7.35s13.75-4.08,17.43-7.35a25.26,25.26,0,0,1,4.62-3.4,221.18,221.18,0,0,1-1.36,24.23c-4.76,1.36-7.89,4.08-10.48,6.26-3.27,2.72-5.31,4.63-10.21,4.63s-6.94-1.91-10.21-4.63c-3.81-3.27-8.44-7.35-17.42-7.35s-13.75,4.08-17.42,7.35c-3.27,2.72-5.31,4.63-10.21,4.63s-6.95-1.91-10.21-4.63c-3.82-3.27-8.44-7.35-17.43-7.35a22.32,22.32,0,0,0-6.26.82,5.61,5.61,0,0,0,2.72,10.89,13.72,13.72,0,0,1,3.54-.41c4.9,0,6.94,1.9,10.21,4.63,3.81,3.26,8.44,7.35,17.43,7.35s13.74-4.09,17.42-7.35c3.27-2.73,5.31-4.63,10.21-4.63s6.94,1.9,10.21,4.63c3.81,3.26,8.44,7.35,17.42,7.35s13.75-4.09,17.43-7.35c.27-.28.54-.41.81-.68C435.17,457.27,430.55,467.88,424,476.19Z" style="fill:#f1a930"/><circle cx="364.54" cy="205.39" r="110.39" style="fill:none;stroke:#f8f0ec;stroke-linecap:round;stroke-linejoin:round;stroke-width:10px"/><path d="M402.13,129.61s28.95,5.54,33.47,37.48" style="fill:none;stroke:#f8f0ec;stroke-linecap:round;stroke-linejoin:round;stroke-width:10px"/></svg>