<svg id="Layer_1" data-name="Layer 1" xmlns="http://www.w3.org/2000/svg" viewBox="0 0 720 720"><title>SpacePineappleLogo</title><g id="Layer_3" data-name="Layer 3"><rect x="0.56" y="-3" width="720" height="723.5" style="fill:#1c0021"/></g><g id="Layer_3-2" data-name="Layer 3"><rect x="233.25" y="126.59" width="259.32" height="152.6" style="fill:#1c0021"/></g><rect x="139.06" y="560.15" width="471.4" height="57.85" style="fill:none"/><path d="M117.68,80.31l-13.61-1a.76.76,0,0,1-.68-.41L98.22,66.29a4.54,4.54,0,0,0-8.44,0L84.61,79a.76.76,0,0,1-.68.41l-13.62,1a4.71,4.71,0,0,0-4.08,3.13,4.26,4.26,0,0,0,1.36,4.9l10.62,8.71c.27.14.27.55.27.82l-3.27,13.2a4.62,4.62,0,0,0,.68,4,4.52,4.52,0,0,0,3.54,1.77,5.06,5.06,0,0,0,2.45-.68l11.57-7.21a.85.85,0,0,1,.82,0L106,116.11a4,4,0,0,0,2.45.82,4.41,4.41,0,0,0,4.22-5.58l-3.27-13.21c-.14-.27,0-.54.27-.81l10.76-8.72a4.49,4.49,0,0,0,1.36-4.9A4.76,4.76,0,0,0,117.68,80.31Zm.82,6L107.88,95a3.57,3.57,0,0,0-1.22,3.54l3.27,13.2c.13.82-.14,1.37-.41,1.5a1.64,1.64,0,0,1-1.23.68,3.33,3.33,0,0,1-1-.27l-11.71-7.21a3.09,3.09,0,0,0-1.9-.55,3.14,3.14,0,0,0-1.91.55l-11.57,7.21a1.73,1.73,0,0,1-2.31-.41,1.67,1.67,0,0,1-.28-1.5l3.27-13.2A3.49,3.49,0,0,0,79.71,95L69.36,86.3a2,2,0,0,1-.54-1.91,1.76,1.76,0,0,1,1.49-1.22l13.62-1a3.62,3.62,0,0,0,3-2.18l5.17-12.66a1.61,1.61,0,0,1,1.64-1.09,1.84,1.84,0,0,1,1.63,1.09L100.53,80a3.65,3.65,0,0,0,3,2.18l13.61,1a1.48,1.48,0,0,1,1.5,1.22C119.05,84.67,119.32,85.48,118.5,86.3Z" style="fill:#fff"/><path d="M633.6,496.31l-9.94-9.4c-.27-.13-.27-.54-.14-.81l4-13.07a4.63,4.63,0,0,0-6.53-5.45l-12.12,6.54a.89.89,0,0,1-.81,0l-11.17-7.9a4.5,4.5,0,0,0-5-.13,4.28,4.28,0,0,0-2,4.63l2.58,13.47c0,.27,0,.55-.27.68L581.19,493a4,4,0,0,0-1.91,3.4,4.41,4.41,0,0,0,4,4.63l13.48,1.77a.58.58,0,0,1,.54.55l4.49,12.93a4.64,4.64,0,0,0,1.37,2.18,4.19,4.19,0,0,0,3.81.81,4.43,4.43,0,0,0,3.13-2.45l5.85-12.25a.76.76,0,0,1,.68-.41h13.89a4.55,4.55,0,0,0,4.22-3A4.37,4.37,0,0,0,633.6,496.31Zm-3.13,5.17H616.72a3.81,3.81,0,0,0-3.27,2l-5.85,12.25a1.78,1.78,0,0,1-1.23,1,1.48,1.48,0,0,1-1.36-.28,1.2,1.2,0,0,1-.54-.81L600,502.7a3.47,3.47,0,0,0-1.08-1.63,4.29,4.29,0,0,0-1.77-.82l-13.48-1.77a1.87,1.87,0,0,1-1.5-1.76c0-.41.14-.82.82-1.37l10.89-8.16a3.55,3.55,0,0,0,1.36-3.54l-2.59-13.34a1.7,1.7,0,0,1,.82-1.77,1.82,1.82,0,0,1,1.91,0l11.16,7.89a3.58,3.58,0,0,0,3.67.28l12.12-6.54a1.65,1.65,0,0,1,1.9.14,1.67,1.67,0,0,1,.55,1.9l-4,13.07a3.66,3.66,0,0,0,1,3.68l9.94,9.39a1.57,1.57,0,0,1,.41,1.9A2.05,2.05,0,0,1,630.47,501.48Z" style="fill:#fff"/><path d="M117.28,148.1l-8-.54c-.13,0-.27-.14-.4-.28l-3.13-7.48a2.51,2.51,0,0,0-2.45-1.64,2.67,2.67,0,0,0-2.45,1.64l-3.14,7.48c0,.14-.27.28-.4.28l-7.9.54a2.49,2.49,0,0,0-2.31,1.77,2.53,2.53,0,0,0,.81,2.86l6.26,5.17a.49.49,0,0,1,.14.41l-1.9,7.76a2.77,2.77,0,0,0,.4,2.31A2.66,2.66,0,0,0,95,169.47a2.24,2.24,0,0,0,1.36-.41l6.81-4.22a.26.26,0,0,1,.41,0l6.8,4.22a2.7,2.7,0,0,0,1.5.41,2.89,2.89,0,0,0,2-.95,2.86,2.86,0,0,0,.55-2.32l-1.91-7.75c0-.14,0-.41.14-.41l6.26-5.18a2.82,2.82,0,0,0,.82-2.85A2.57,2.57,0,0,0,117.28,148.1Zm.54,3.4-6.26,5.18a1.93,1.93,0,0,0-.68,2.17l1.9,7.76c.14.41-.13.82-.13,1a1.09,1.09,0,0,1-1.36.27l-7-4.22a2.32,2.32,0,0,0-2.17,0l-6.81,4.22a1.06,1.06,0,0,1-1.36-.27.77.77,0,0,1-.14-.82L95.77,159a2.15,2.15,0,0,0-.68-2l-6.26-5.17a.78.78,0,0,1-.28-1.09.94.94,0,0,1,1-.68l8-.55a1.94,1.94,0,0,0,1.77-1.22l3.13-7.49a1.23,1.23,0,0,1,1-.68,1,1,0,0,1,1,.68l3.14,7.49a1.93,1.93,0,0,0,1.76,1.22l8,.55c.68,0,.81.54,1,.68C118.09,150.55,118.23,151.09,117.82,151.5Z" style="fill:#fff"/><path d="M153.21,121l-5-4.22a.48.48,0,0,1-.14-.41l1.63-6.4a2.12,2.12,0,0,0-.81-2.31,2.3,2.3,0,0,0-2.45-.14l-5.72,3.41a.26.26,0,0,1-.41,0l-5.58-3.54a2.26,2.26,0,0,0-2.45,0,2.19,2.19,0,0,0-.95,2.31l1.63,6.4a.49.49,0,0,1-.14.41l-5,4.35a2.19,2.19,0,0,0-.82,1.77,2.31,2.31,0,0,0,1,1.77,1.53,1.53,0,0,0,1.09.41l6.54.55a.29.29,0,0,1,.27.27l2.45,6.12a2.5,2.5,0,0,0,.68,1,1.92,1.92,0,0,0,1.91.27,2.13,2.13,0,0,0,1.49-1.36l2.59-6.13a.3.3,0,0,1,.27-.27l6.67-.41a2.23,2.23,0,0,0,1.91-1.49A1.9,1.9,0,0,0,153.21,121Zm-1.36,2.59-6.67.41a1.6,1.6,0,0,0-1.5,1.08l-2.58,6.13c-.14.41-.41.41-.55.54a1.07,1.07,0,0,1-.68-.13c-.13-.14-.27-.27-.27-.41L137.15,125a1.37,1.37,0,0,0-.54-.68,2,2,0,0,0-1-.27l-6.67-.55a.87.87,0,0,1-.81-.82.9.9,0,0,1,.27-.68l5-4.22A1.68,1.68,0,0,0,134,116l-1.63-6.39a.93.93,0,0,1,.4-1,.82.82,0,0,1,1,0l5.58,3.54a1.43,1.43,0,0,0,1.77,0l5.72-3.4c.4-.27.81,0,1,0a.91.91,0,0,1,.27.95l-1.63,6.4a1.7,1.7,0,0,0,.54,1.77l5,4.36c.41.27.27.81.27,1C152.53,123.19,152.4,123.6,151.85,123.6Z" style="fill:#fff"/><path d="M656.74,550.62l-5-4.36a.5.5,0,0,1-.13-.4l1.63-6.4a2.15,2.15,0,0,0-.82-2.32,2.28,2.28,0,0,0-2.45-.13l-5.71,3.4a.25.25,0,0,1-.41,0l-5.58-3.54a2.28,2.28,0,0,0-2.45,0,2.23,2.23,0,0,0-1,2.32l1.64,6.39a.48.48,0,0,1-.14.41l-5,4.22a2.21,2.21,0,0,0-.81,1.77,2.31,2.31,0,0,0,.95,1.77,1.55,1.55,0,0,0,1.09.41l6.53.54a.29.29,0,0,1,.27.28l2.45,6.12a2.49,2.49,0,0,0,.69,1,1.92,1.92,0,0,0,1.9.27,2.15,2.15,0,0,0,1.5-1.36l2.58-6.13a.29.29,0,0,1,.28-.27l6.67-.41a2.22,2.22,0,0,0,1.9-1.5A1.6,1.6,0,0,0,656.74,550.62Zm-1.36,2.45-6.67.41a1.6,1.6,0,0,0-1.5,1.09l-2.59,6.12c-.13.41-.4.41-.54.55s-.55,0-.68-.14-.27-.27-.27-.41l-2.45-6.12a1.38,1.38,0,0,0-.55-.68,1.9,1.9,0,0,0-1-.27l-6.67-.55a.88.88,0,0,1-.82-.82.9.9,0,0,1,.27-.68l5-4.22a1.7,1.7,0,0,0,.54-1.77l-1.63-6.39a.94.94,0,0,1,.41-1,.8.8,0,0,1,.95,0l5.58,3.54a1.43,1.43,0,0,0,1.77,0l5.72-3.4c.41-.27.82,0,.95,0a.91.91,0,0,1,.28,1l-1.64,6.4a1.71,1.71,0,0,0,.55,1.77l5,4.36c.41.27.28.81.28.95C656.06,552.66,655.92,553.07,655.38,553.07Z" style="fill:#fff"/><path d="M670.35,122.51a2.18,2.18,0,0,0-1.5-1c-3.13,0-29.4-1.09-29.4-31.72a1.77,1.77,0,0,0-3.54,0c0,30.63-26.41,31.72-29.27,31.72a1.54,1.54,0,0,0-1.08.4c-.28.14-.41.41-.55.55a2,2,0,0,0,0,1.77,1.89,1.89,0,0,0,1.63,1h.14c3.13,0,29.27,1.09,29.27,31.72a1.77,1.77,0,1,0,3.54,0c0-30.49,26.27-31.72,29.26-31.72a2.1,2.1,0,0,0,1.64-1A1.68,1.68,0,0,0,670.35,122.51Zm-32.67,21.37c-3.81-12.66-13.34-18.1-20.83-20.55,7.49-2.46,16.88-7.9,20.83-20.56,3.81,12.66,13.34,18.1,20.83,20.56C651,125.78,641.63,131.22,637.68,143.88Z" style="fill:#fff"/><path d="M615.76,87.93a1.82,1.82,0,0,0,1.77-1.9,1.79,1.79,0,0,0-1.77-1.77c-1.63,0-15.92-.55-15.92-17.29a1.77,1.77,0,1,0-3.54,0c0,16.74-14.43,17.29-15.93,17.29h-.13A1.77,1.77,0,0,0,578.6,86a1.81,1.81,0,0,0,1.77,1.77c1.77,0,15.93.54,15.93,17.28a1.8,1.8,0,0,0,1.77,1.77,1.56,1.56,0,0,0,1.63-1.63c-.13-16.74,14.3-17.29,16.06-17.29Zm-17.83,7.49A17.67,17.67,0,0,0,588.4,86a17.78,17.78,0,0,0,9.53-9.4,17.72,17.72,0,0,0,9.53,9.4A17.79,17.79,0,0,0,597.93,95.42Z" style="fill:#fff"/><path d="M600.38,144.42c-1.63,0-15.92-.54-15.92-17.28a1.77,1.77,0,1,0-3.54,0c0,16.74-14.43,17.28-15.93,17.28h-.14a1.78,1.78,0,0,0-1.63,1.77A1.8,1.8,0,0,0,565,148c1.77,0,15.93.55,15.93,17.29a1.8,1.8,0,0,0,1.77,1.77c.81.27,1.63-.54,1.63-1.63,0-16.75,14.43-17.29,15.93-17.29h.13a1.83,1.83,0,0,0,1.77-1.91A1.72,1.72,0,0,0,600.38,144.42Zm-17.83,11.3a18.16,18.16,0,0,0-9.53-9.39,17.79,17.79,0,0,0,9.53-9.39,17.74,17.74,0,0,0,9.53,9.39A17.33,17.33,0,0,0,582.55,155.72Z" style="fill:#fff"/><path d="M94,511.55a141.24,141.24,0,0,0,51.45-108.08,5.06,5.06,0,0,0-4.9-4.9A141.33,141.33,0,0,0,31.93,448.94,60.12,60.12,0,0,0-8.5,466.22a59.5,59.5,0,0,0-17.7,41c-.14,3.81,5.45,7.62,9,2.58,1.91-2.58,3.54-5.31,5.72-7.48A37.39,37.39,0,0,1,8,492.22a5.19,5.19,0,0,0,1.22,2l38.93,39.34a6.41,6.41,0,0,0,2.05,1.22A35.78,35.78,0,0,1,40,554.16c-2.18,2.18-4.9,3.68-7.49,5.58-5.44,4.08-.68,9.12,2.59,9.12a60.29,60.29,0,0,0,41.11-17.29A58.56,58.56,0,0,0,94,511.55Zm41.65-103.32a129.88,129.88,0,0,1-7.08,37L98.63,415a125.61,125.61,0,0,1,37-6.81Zm-148.78,82.9a49.91,49.91,0,0,1,11.71-18,51.31,51.31,0,0,1,25.31-13.62c-.27.28-10.48,17.56-12.66,22.6a44.81,44.81,0,0,0-24.36,9Zm66,33.49L18.45,489.77a131.57,131.57,0,0,1,70.24-71l36.07,36.34A131.88,131.88,0,0,1,52.89,524.62ZM60.51,532c6.81-3,22.46-12.25,22.73-12.39A49.58,49.58,0,0,1,69.5,544.77a52.28,52.28,0,0,1-18.11,11.57A46.46,46.46,0,0,0,60.51,532Z" style="fill:#fff"/><path d="M9.19,505.84a4.75,4.75,0,0,0-6.8,0L-15,523a4.77,4.77,0,0,0,0,6.8,4.76,4.76,0,0,0,6.81,0L9.19,512.64A4.75,4.75,0,0,0,9.19,505.84Z" style="fill:#fff"/><path d="M22.94,519.86a4.84,4.84,0,0,0-3.4-1.5h0a5.26,5.26,0,0,0-3.54,1.5l-34.71,34.3a2.36,2.36,0,0,0-.68,1,4.74,4.74,0,0,0,.68,6,4.74,4.74,0,0,0,6,.68,4,4,0,0,0,1-.68l34.71-34.44a7.36,7.36,0,0,0,.82-1.09A4.56,4.56,0,0,0,22.94,519.86Z" style="fill:#fff"/><path d="M36.83,533.74a4.78,4.78,0,0,0-6.81,0L12.6,550.89a4.76,4.76,0,0,0,0,6.81,4.88,4.88,0,0,0,6.8,0l17.43-17.15A4.78,4.78,0,0,0,36.83,533.74Z" style="fill:#fff"/><text transform="translate(121.39 611.16)" style="isolation:isolate;font-size:61.256141662597656px;fill:#fff;font-family:K2D-ExtraBold, K2D ExtraBold;font-weight:800">Sp<tspan x="74.06" y="0" style="letter-spacing:-0.014993713386470112em">a</tspan><tspan x="106.46" y="0">ce </tspan><tspan x="186.83" y="0" style="letter-spacing:-0.03498533123509693em">P</tspan><tspan x="226.83" y="0" style="letter-spacing:-0.000007971139493072894em">in</tspan><tspan x="279.32" y="0" style="letter-spacing:-0.015001684525963184em">e</tspan><tspan x="311.12" y="0">app</tspan><tspan x="412.31" y="0" style="letter-spacing:-0.02498952231078352em">l</tspan><tspan x="433.63" y="0">e</tspan></text><path d="M425.32,338.62a68.08,68.08,0,0,0-29.67-24.23,262.56,262.56,0,0,1,22.59-27.77,5.53,5.53,0,0,0-5.85-9.12c-2.45.82-4.77,1.9-7.22,2.86a337.63,337.63,0,0,1,28.59-35.26,5.53,5.53,0,0,0-5.85-9.12,204.84,204.84,0,0,0-19.06,8c17.7-25.32,32.4-40.15,32.67-40.43a5.53,5.53,0,0,0-5.85-9.12,270.82,270.82,0,0,0-36.08,16.61l19.33-38.52a5.37,5.37,0,0,0-1.09-6.4,5.55,5.55,0,0,0-6.53-.82,318.59,318.59,0,0,0-29.54,18.24,185.35,185.35,0,0,0-22.6-40.43,5.86,5.86,0,0,0-4.49-2.31,5.32,5.32,0,0,0-4.49,2.31,184.76,184.76,0,0,0-22.6,40.3A335.67,335.67,0,0,0,298,165.2a5.54,5.54,0,0,0-6.53.81,5.41,5.41,0,0,0-1.09,6.4l17.15,34.3a271,271,0,0,0-28-12.25,5.82,5.82,0,0,0-6.67,2.18,5.56,5.56,0,0,0,.82,6.94c.27.28,15,15,32.67,40.43a204.84,204.84,0,0,0-19.06-8,5.81,5.81,0,0,0-6.67,2.18,5.38,5.38,0,0,0,.82,6.94c.13.14,12.93,13.07,28.58,35.26-2.45-1-4.76-1.91-7.21-2.86a5.81,5.81,0,0,0-6.67,2.18,5.56,5.56,0,0,0,.82,6.94,226.57,226.57,0,0,1,21.23,25.86,68.72,68.72,0,0,0-34.3,26.14c-12.12,17.56-18,41.79-18,74.32s5.85,56.9,18,74.33c14.56,21.23,38.38,31.85,70.65,31.85s56.08-10.75,70.64-31.85c12.12-17.56,18-41.79,18-74.33C443.15,380.55,437.3,356.18,425.32,338.62ZM279.94,380l2,1.63c3.81,3.27,8.44,7.35,17.43,7.35s13.61-4.08,17.42-7.35c3.27-2.72,5.31-4.62,10.21-4.62s6.94,1.9,10.21,4.62c3.81,3.27,8.44,7.35,17.42,7.35s13.75-4.08,17.43-7.35c3.26-2.72,5.3-4.62,10.21-4.62s6.94,1.9,10.2,4.62c3.82,3.27,8.44,7.35,17.43,7.35s13.75-4.08,17.42-7.35c.82-.68,1.36-1.22,2-1.77a176.07,176.07,0,0,1,2.45,22.19,26.09,26.09,0,0,0-11.7,6.67c-3.27,2.73-5.31,4.63-10.21,4.63s-6.94-1.9-10.21-4.63c-3.81-3.26-8.44-7.35-17.42-7.35s-13.75,4.09-17.43,7.35c-3.27,2.73-5.31,4.63-10.21,4.63s-6.94-1.9-10.21-4.63c-3.81-3.26-8.44-7.35-17.42-7.35s-13.61,4.09-17.43,7.35c-3.26,2.73-5.3,4.63-10.2,4.63s-7-1.9-10.21-4.63c-2.86-2.45-6.27-5.31-11.71-6.67A175.6,175.6,0,0,1,279.94,380Zm96.24-71.46A183.4,183.4,0,0,1,394,297.78c-3,3.68-6,7.9-9.25,12.8A78,78,0,0,0,376.18,308.54Zm9.26-18.65a189.23,189.23,0,0,0-25.6,17c-1.49-.13-3-.13-4.62-.13-2.45-1.91-5-3.82-7.63-5.72a178.88,178.88,0,0,1,19.33-17.83,217.33,217.33,0,0,1,42.61-27.09A388.77,388.77,0,0,0,385.44,289.89Zm3-35a222.5,222.5,0,0,0-30.76,21.65c-3.54-3-7.63-6.27-12.25-9.53a187.39,187.39,0,0,1,22.73-21.51,250,250,0,0,1,49.28-31A390.58,390.58,0,0,0,388.43,254.9Zm-6.53-33.21c-2.18,1.36-4.36,3-6.4,4.35-3.54-4.08-7.76-8.71-12.8-13.61a279.64,279.64,0,0,1,37.85-28.18Zm-27.23-65.75a154.36,154.36,0,0,1,17.7,34.17,205.92,205.92,0,0,0-17.7,14.7c-5.17-4.77-11.16-9.67-17.69-14.7A154.3,154.3,0,0,1,354.67,155.94Zm-46,28.18c27.77,17.29,46.28,35,57.86,48.32-3.27,2.45-6.27,4.9-9,7.22a256.69,256.69,0,0,0-32.94-23.42Zm-10.75,30.35a247.39,247.39,0,0,1,51.18,32.81A155.54,155.54,0,0,0,336,260.76c-3-1.91-6-3.82-9.25-5.72A369.42,369.42,0,0,0,297.91,214.47ZM305.8,256a232,232,0,0,1,43.43,27.91,143.17,143.17,0,0,0-10.76,11c-2.86-1.77-5.71-3.4-8.44-5C321.19,276,312.61,264.7,305.8,256Zm15.39,41.79a179.77,179.77,0,0,1,16.74,10.07,75.63,75.63,0,0,0-8.3,1.37C326.63,305,323.91,301.18,321.19,297.78Zm33.48,20.15c26.82,0,46.42,7.89,59.08,24a15.18,15.18,0,0,1-3.81.54,13,13,0,0,1-4.22-.68,5.6,5.6,0,0,0-3.54,10.62,24.81,24.81,0,0,0,7.89,1.22,23.55,23.55,0,0,0,10.08-2A88.48,88.48,0,0,1,427,368.7a32.13,32.13,0,0,0-6.67,4.77c-3.26,2.72-5.3,4.62-10.21,4.62s-6.94-1.9-10.2-4.62c-3.82-3.27-8.44-7.35-17.43-7.35s-13.75,4.08-17.42,7.35c-3.27,2.72-5.31,4.62-10.21,4.62s-6.94-1.9-10.21-4.62c-3.81-3.27-8.44-7.35-17.43-7.35s-13.61,4.08-17.42,7.35c-3.27,2.72-5.31,4.62-10.21,4.62s-6.94-1.9-10.21-4.62a31.87,31.87,0,0,0-6.67-4.77,94.46,94.46,0,0,1,6.81-17.15,22.63,22.63,0,0,0,10.07,2c9,0,13.61-4.08,17.43-7.35,3.26-2.72,5.3-4.63,10.2-4.63s6.95,1.91,10.21,4.63c3.82,3.27,8.44,7.35,17.43,7.35s13.75-4.08,17.42-7.35c3.27-2.72,5.31-4.63,10.21-4.63a5.58,5.58,0,0,0,0-11.16c-9,0-13.75,4.09-17.42,7.35-3.27,2.72-5.31,4.63-10.21,4.63s-6.94-1.91-10.21-4.63c-3.81-3.26-8.44-7.35-17.43-7.35s-13.61,4.09-17.42,7.35c-3.27,2.72-5.31,4.63-10.21,4.63a26.61,26.61,0,0,1-3.81-.41C308.25,325.55,327.86,317.93,354.67,317.93ZM306.21,494.75c4.77-1.36,7.9-4.08,10.62-6.26,3.27-2.72,5.31-4.63,10.21-4.63s6.94,1.91,10.21,4.63c3.81,3.27,8.44,7.35,17.42,7.35s13.75-4.08,17.43-7.35c3.26-2.72,5.3-4.63,10.21-4.63s6.94,1.91,10.2,4.63c2.73,2.32,5.72,5,10.62,6.26-12.25,9.12-28.18,13.48-48.46,13.48S318.46,503.87,306.21,494.75ZM414,484a17.54,17.54,0,0,1-4.08.54c-4.9,0-6.94-1.9-10.21-4.62-3.81-3.27-8.44-7.35-17.42-7.35s-13.75,4.08-17.43,7.35c-3.27,2.72-5.31,4.62-10.21,4.62s-6.94-1.9-10.21-4.62c-3.81-3.27-8.44-7.35-17.42-7.35s-13.61,4.08-17.43,7.35c-3.26,2.72-5.3,4.62-10.2,4.62a17.37,17.37,0,0,1-4-.54h-.14c-6.53-8.44-11.16-18.92-14.29-31.85.27.27.54.41.82.68,3.81,3.26,8.44,7.35,17.42,7.35a34.85,34.85,0,0,0,3.81-.27A5.51,5.51,0,1,0,301.45,449a11.51,11.51,0,0,1-2.18.13c-4.9,0-6.94-1.9-10.21-4.63-2.59-2.17-5.72-4.9-10.48-6.26A219.17,219.17,0,0,1,277.22,414a20.39,20.39,0,0,1,4.63,3.41c3.81,3.26,8.44,7.35,17.42,7.35s13.61-4.09,17.42-7.35c3.27-2.73,5.31-4.63,10.21-4.63s7,1.9,10.21,4.63c3.81,3.26,8.44,7.35,17.43,7.35s13.74-4.09,17.42-7.35c3.27-2.73,5.31-4.63,10.21-4.63s6.94,1.9,10.21,4.63c3.81,3.26,8.44,7.35,17.42,7.35s13.75-4.09,17.43-7.35a24.88,24.88,0,0,1,4.62-3.41,221,221,0,0,1-1.36,24.23c-4.76,1.36-7.89,4.09-10.48,6.26-3.27,2.73-5.31,4.63-10.21,4.63s-6.94-1.9-10.21-4.63c-3.81-3.26-8.44-7.35-17.42-7.35s-13.75,4.09-17.42,7.35c-3.27,2.73-5.31,4.63-10.21,4.63s-7-1.9-10.21-4.63c-3.81-3.26-8.44-7.35-17.43-7.35a22.7,22.7,0,0,0-6.26.82,5.61,5.61,0,0,0,2.72,10.89,14.17,14.17,0,0,1,3.54-.41c4.9,0,7,1.91,10.21,4.63,3.81,3.27,8.44,7.35,17.43,7.35s13.74-4.08,17.42-7.35c3.27-2.72,5.31-4.63,10.21-4.63s6.94,1.91,10.21,4.63c3.81,3.27,8.44,7.35,17.42,7.35s13.75-4.08,17.43-7.35c.27-.27.54-.41.81-.68C425.18,465.08,420.56,475.7,414,484Z" style="fill:#f1a930"/><circle cx="354.55" cy="213.2" r="110.39" style="fill:none;stroke:#f8f0ec;stroke-linecap:round;stroke-linejoin:round;stroke-width:10px"/><path d="M392.14,137.42s28.95,5.54,33.47,37.48" style="fill:none;stroke:#f8f0ec;stroke-linecap:round;stroke-linejoin:round;stroke-width:10px"/></svg>