<svg id="Layer_1" data-name="Layer 1" xmlns="http://www.w3.org/2000/svg" viewBox="0 0 720 720"><title>SpacePineappleLogo</title><path d="M429,383.56a68,68,0,0,0-29.67-24.23,265.42,265.42,0,0,1,22.59-27.77,5.53,5.53,0,0,0-5.85-9.12c-2.45.82-4.76,1.91-7.21,2.86A336.9,336.9,0,0,1,437.42,290a5.53,5.53,0,0,0-5.85-9.12,204.84,204.84,0,0,0-19.06,8c17.7-25.32,32.4-40.16,32.67-40.43a5.57,5.57,0,0,0,.82-6.95,5.51,5.51,0,0,0-6.67-2.17A268.84,268.84,0,0,0,403.26,256l19.33-38.52a5.39,5.39,0,0,0-1.09-6.4,5.55,5.55,0,0,0-6.54-.81,315.66,315.66,0,0,0-29.54,18.24,185.48,185.48,0,0,0-22.59-40.43,5.9,5.9,0,0,0-4.5-2.32,5.31,5.31,0,0,0-4.49,2.32,184.23,184.23,0,0,0-22.59,40.29,337.15,337.15,0,0,0-29.54-18.24,5.54,5.54,0,0,0-6.54.82,5.39,5.39,0,0,0-1.09,6.39l17.16,34.31a270,270,0,0,0-28.05-12.25,5.82,5.82,0,0,0-6.67,2.17,5.57,5.57,0,0,0,.82,6.95c.27.27,15,15,32.67,40.43a204.84,204.84,0,0,0-19.06-8,5.82,5.82,0,0,0-6.67,2.18,5.39,5.39,0,0,0,.82,6.94c.14.14,12.93,13.07,28.59,35.26-2.45-.95-4.77-1.9-7.22-2.86a5.82,5.82,0,0,0-6.67,2.18,5.56,5.56,0,0,0,.82,6.94,224.94,224.94,0,0,1,21.23,25.87,68.65,68.65,0,0,0-34.3,26.13c-12.12,17.56-18,41.79-18,74.33s5.85,56.9,18,74.32c14.57,21.24,38.39,31.85,70.65,31.85s56.08-10.75,70.65-31.85c12.11-17.56,18-41.79,18-74.32S441,401.12,429,383.56ZM283.6,424.94l2,1.64c3.82,3.26,8.44,7.35,17.43,7.35s13.61-4.09,17.42-7.35c3.27-2.72,5.31-4.63,10.21-4.63s6.94,1.91,10.21,4.63c3.81,3.26,8.44,7.35,17.42,7.35s13.75-4.09,17.43-7.35C379,423.86,381.07,422,386,422s6.94,1.91,10.21,4.63c3.81,3.26,8.44,7.35,17.42,7.35s13.75-4.09,17.42-7.35c.82-.68,1.37-1.23,2.05-1.77A179.41,179.41,0,0,1,435.52,447a26,26,0,0,0-11.71,6.67c-3.27,2.72-5.31,4.62-10.21,4.62s-6.94-1.9-10.21-4.62c-3.81-3.27-8.44-7.35-17.42-7.35s-13.75,4.08-17.43,7.35c-3.26,2.72-5.31,4.62-10.21,4.62s-6.94-1.9-10.2-4.62c-3.82-3.27-8.44-7.35-17.43-7.35s-13.61,4.08-17.42,7.35c-3.27,2.72-5.31,4.62-10.21,4.62s-6.94-1.9-10.21-4.62c-2.86-2.45-6.26-5.31-11.71-6.67A177.43,177.43,0,0,1,283.6,424.94Zm96.24-71.46a181.34,181.34,0,0,1,17.83-10.75c-3,3.67-6,7.89-9.25,12.79A76.93,76.93,0,0,0,379.84,353.48Zm9.26-18.65a189.51,189.51,0,0,0-25.59,17c-1.5-.14-3-.14-4.63-.14-2.45-1.91-5-3.81-7.62-5.72a176.9,176.9,0,0,1,19.33-17.83,216.9,216.9,0,0,1,42.6-27.09A392.51,392.51,0,0,0,389.1,334.83Zm3-35a222.53,222.53,0,0,0-30.76,21.64c-3.54-3-7.62-6.26-12.25-9.53a188.22,188.22,0,0,1,22.73-21.51,250.29,250.29,0,0,1,49.28-31A390.58,390.58,0,0,0,392.09,299.85Zm-6.53-33.22c-2.18,1.36-4.36,3-6.4,4.36-3.54-4.09-7.76-8.71-12.79-13.62a278,278,0,0,1,37.84-28.17Zm-27.23-65.75A154.15,154.15,0,0,1,376,235.05a209.36,209.36,0,0,0-17.7,14.7c-5.17-4.76-11.16-9.66-17.69-14.7A154.52,154.52,0,0,1,358.33,200.88Zm-46,28.18c27.77,17.29,46.29,35,57.86,48.33-3.27,2.45-6.26,4.9-9,7.21a255.75,255.75,0,0,0-32.94-23.41Zm-10.75,30.36a247.41,247.41,0,0,1,51.18,32.8,153.15,153.15,0,0,0-13.06,13.48c-3-1.91-6-3.81-9.26-5.72A367.82,367.82,0,0,0,301.57,259.42Zm7.9,41.51a232.16,232.16,0,0,1,43.42,27.91,140.35,140.35,0,0,0-10.75,11c-2.86-1.77-5.72-3.41-8.44-5C324.85,321,316.27,309.65,309.47,300.93Zm15.38,41.8a174.29,174.29,0,0,1,16.74,10.07,75.67,75.67,0,0,0-8.3,1.36C330.29,349.94,327.57,346.13,324.85,342.73Zm33.48,20.14c26.82,0,46.42,7.9,59.08,24a15.18,15.18,0,0,1-3.81.54,13,13,0,0,1-4.22-.68,5.6,5.6,0,1,0-3.54,10.62,24.55,24.55,0,0,0,7.9,1.23,23.5,23.5,0,0,0,10.07-2.05,88.59,88.59,0,0,1,6.81,17.16,32,32,0,0,0-6.67,4.76c-3.27,2.72-5.31,4.63-10.21,4.63s-6.95-1.91-10.21-4.63c-3.81-3.27-8.44-7.35-17.43-7.35s-13.74,4.08-17.42,7.35c-3.27,2.72-5.31,4.63-10.21,4.63s-6.94-1.91-10.21-4.63c-3.81-3.27-8.44-7.35-17.42-7.35s-13.62,4.08-17.43,7.35c-3.26,2.72-5.31,4.63-10.21,4.63s-6.94-1.91-10.21-4.63a32,32,0,0,0-6.67-4.76,94.28,94.28,0,0,1,6.81-17.16,22.65,22.65,0,0,0,10.07,2.05c9,0,13.62-4.09,17.43-7.35,3.26-2.73,5.31-4.63,10.21-4.63s6.94,1.9,10.21,4.63c3.81,3.26,8.44,7.35,17.42,7.35s13.75-4.09,17.42-7.35c3.27-2.73,5.31-4.63,10.21-4.63a5.59,5.59,0,0,0,0-11.17c-9,0-13.74,4.09-17.42,7.36-3.27,2.72-5.31,4.62-10.21,4.62s-6.94-1.9-10.21-4.62c-3.81-3.27-8.44-7.36-17.42-7.36s-13.62,4.09-17.43,7.36c-3.26,2.72-5.31,4.62-10.21,4.62a28.47,28.47,0,0,1-3.81-.4C311.92,370.49,331.52,362.87,358.33,362.87ZM309.87,539.7c4.77-1.36,7.9-4.09,10.62-6.26,3.27-2.73,5.31-4.63,10.21-4.63s6.94,1.9,10.21,4.63c3.81,3.26,8.44,7.35,17.42,7.35s13.75-4.09,17.43-7.35c3.27-2.73,5.31-4.63,10.21-4.63s6.94,1.9,10.21,4.63c2.72,2.31,5.71,5,10.61,6.26-12.25,9.12-28.17,13.47-48.46,13.47S322.13,548.82,309.87,539.7Zm107.81-10.76a17,17,0,0,1-4.08.55c-4.9,0-6.94-1.91-10.21-4.63-3.81-3.27-8.44-7.35-17.42-7.35s-13.75,4.08-17.43,7.35c-3.26,2.72-5.31,4.63-10.21,4.63s-6.94-1.91-10.2-4.63c-3.82-3.27-8.44-7.35-17.43-7.35s-13.61,4.08-17.42,7.35c-3.27,2.72-5.31,4.63-10.21,4.63a16.88,16.88,0,0,1-3.95-.55H299c-6.53-8.44-11.16-18.92-14.29-31.85.27.27.55.41.82.68,3.81,3.27,8.44,7.35,17.42,7.35a32.53,32.53,0,0,0,3.81-.27A5.51,5.51,0,0,0,305.11,494a10.7,10.7,0,0,1-2.18.14c-4.9,0-6.94-1.91-10.21-4.63-2.58-2.18-5.71-4.9-10.48-6.26A219.17,219.17,0,0,1,280.88,459a20,20,0,0,1,4.63,3.4c3.81,3.27,8.44,7.35,17.42,7.35s13.61-4.08,17.43-7.35c3.26-2.72,5.3-4.63,10.2-4.63s6.95,1.91,10.21,4.63c3.82,3.27,8.44,7.35,17.43,7.35s13.75-4.08,17.42-7.35c3.27-2.72,5.31-4.63,10.21-4.63s6.94,1.91,10.21,4.63c3.81,3.27,8.44,7.35,17.42,7.35s13.75-4.08,17.43-7.35a24.53,24.53,0,0,1,4.63-3.4,223.69,223.69,0,0,1-1.36,24.23c-4.77,1.36-7.9,4.08-10.49,6.26-3.26,2.72-5.3,4.63-10.21,4.63s-6.94-1.91-10.2-4.63c-3.82-3.27-8.44-7.35-17.43-7.35s-13.75,4.08-17.42,7.35c-3.27,2.72-5.31,4.63-10.21,4.63s-6.94-1.91-10.21-4.63c-3.81-3.27-8.44-7.35-17.43-7.35a22.71,22.71,0,0,0-6.26.81A5.61,5.61,0,0,0,327,493.82a14.05,14.05,0,0,1,3.53-.4c4.91,0,6.95,1.9,10.21,4.62,3.82,3.27,8.44,7.35,17.43,7.35S372,501.31,375.62,498c3.27-2.72,5.31-4.62,10.21-4.62s6.94,1.9,10.21,4.62c3.81,3.27,8.44,7.35,17.42,7.35s13.75-4.08,17.43-7.35c.27-.27.54-.4.82-.68C428.85,510,424.22,520.64,417.68,528.94Z" style="fill:#f1a930"/><circle cx="358.22" cy="258.15" r="110.39" style="fill:none;stroke:#f8f0ec;stroke-linecap:round;stroke-linejoin:round;stroke-width:10px"/><path d="M395.8,182.36s29,5.55,33.48,37.48" style="fill:none;stroke:#f8f0ec;stroke-linecap:round;stroke-linejoin:round;stroke-width:10px"/></svg>