<svg id="Layer_1" data-name="Layer 1" xmlns="http://www.w3.org/2000/svg" viewBox="0 0 720 720"><title>SpacePineappleLogo</title><rect x="138.88" y="559.69" width="471.4" height="57.85" style="fill:none"/><text transform="translate(297.58 507.34) scale(0.98 1)" style="isolation:isolate;font-size:79.22366333007812px;fill:#fff;font-family:K2D-ExtraBold, K2D ExtraBold;font-weight:800">Sp<tspan x="95.78" y="0" style="letter-spacing:-0.014999231156886783em">a</tspan><tspan x="137.69" y="0">ce </tspan><tspan style="letter-spacing:-0.03498982423270403em"><tspan x="0" y="95.07">P</tspan><tspan x="51.73" y="95.07" style="letter-spacing:-0.000006286350023841903em">in</tspan><tspan x="119.63" y="95.07" style="letter-spacing:-0.014999231156886783em">e</tspan><tspan x="160.74" y="95.07" style="letter-spacing:-0.000012572700047683805em">app</tspan><tspan x="291.62" y="95.07" style="letter-spacing:-0.024981954994747722em">l</tspan><tspan x="319.19" y="95.07" style="letter-spacing:-0.000012572700047683805em">e</tspan></tspan></text><path d="M246.31,445.62a68.08,68.08,0,0,0-29.67-24.23,262.56,262.56,0,0,1,22.59-27.77,5.53,5.53,0,0,0-5.85-9.12c-2.45.82-4.77,1.9-7.22,2.86a337.63,337.63,0,0,1,28.59-35.26A5.53,5.53,0,0,0,248.9,343a204.84,204.84,0,0,0-19.06,8c17.7-25.32,32.4-40.15,32.67-40.43a5.53,5.53,0,0,0-5.85-9.12,270.82,270.82,0,0,0-36.08,16.61l19.33-38.52a5.37,5.37,0,0,0-1.09-6.4,5.55,5.55,0,0,0-6.53-.82,318.59,318.59,0,0,0-29.54,18.24,185.35,185.35,0,0,0-22.6-40.43,5.87,5.87,0,0,0-4.49-2.31,5.32,5.32,0,0,0-4.49,2.31,184.35,184.35,0,0,0-22.6,40.3A337.15,337.15,0,0,0,119,272.2a5.54,5.54,0,0,0-6.53.81,5.41,5.41,0,0,0-1.09,6.4l17.15,34.3a271,271,0,0,0-28-12.25,5.82,5.82,0,0,0-6.67,2.18,5.56,5.56,0,0,0,.82,6.94c.27.28,15,15,32.67,40.43a204.84,204.84,0,0,0-19.06-8,5.81,5.81,0,0,0-6.67,2.18,5.38,5.38,0,0,0,.82,6.94c.13.14,12.93,13.07,28.58,35.26-2.45-1-4.76-1.91-7.21-2.86a5.81,5.81,0,0,0-6.67,2.18,5.57,5.57,0,0,0,.81,6.94,224.63,224.63,0,0,1,21.24,25.86,68.72,68.72,0,0,0-34.3,26.14c-12.12,17.56-18,41.79-18,74.32s5.85,56.9,18,74.33c14.56,21.23,38.38,31.85,70.65,31.85s56.08-10.75,70.64-31.85c12.12-17.56,18-41.79,18-74.33S258.29,463.18,246.31,445.62ZM100.93,487l2,1.63c3.81,3.27,8.44,7.35,17.43,7.35s13.61-4.08,17.42-7.35c3.27-2.72,5.31-4.62,10.21-4.62s6.94,1.9,10.21,4.62c3.81,3.27,8.44,7.35,17.42,7.35s13.75-4.08,17.43-7.35c3.26-2.72,5.3-4.62,10.21-4.62s6.94,1.9,10.2,4.62c3.82,3.27,8.44,7.35,17.43,7.35s13.75-4.08,17.42-7.35c.82-.68,1.36-1.22,2-1.77a176.07,176.07,0,0,1,2.45,22.19,26.09,26.09,0,0,0-11.7,6.67c-3.27,2.73-5.31,4.63-10.21,4.63s-6.94-1.9-10.21-4.63c-3.81-3.26-8.44-7.35-17.43-7.35s-13.74,4.09-17.42,7.35c-3.27,2.73-5.31,4.63-10.21,4.63s-6.94-1.9-10.21-4.63c-3.81-3.26-8.44-7.35-17.42-7.35s-13.61,4.09-17.43,7.35c-3.26,2.73-5.3,4.63-10.2,4.63s-7-1.9-10.21-4.63c-2.86-2.45-6.27-5.31-11.71-6.67A175.6,175.6,0,0,1,100.93,487Zm96.24-71.46A183.4,183.4,0,0,1,215,404.78c-3,3.68-6,7.9-9.25,12.8A78,78,0,0,0,197.17,415.54Zm9.26-18.65a189.23,189.23,0,0,0-25.6,17c-1.49-.13-3-.13-4.62-.13-2.45-1.91-5-3.82-7.63-5.72a178.88,178.88,0,0,1,19.33-17.83,217.33,217.33,0,0,1,42.61-27.09A388.77,388.77,0,0,0,206.43,396.89Zm3-35a222.5,222.5,0,0,0-30.76,21.65c-3.54-3-7.63-6.27-12.25-9.53a187.39,187.39,0,0,1,22.73-21.51,250,250,0,0,1,49.28-31A390.58,390.58,0,0,0,209.42,361.9Zm-6.53-33.21c-2.18,1.36-4.36,3-6.4,4.35-3.54-4.08-7.76-8.71-12.8-13.61a279.64,279.64,0,0,1,37.85-28.18Zm-27.23-65.75a154.78,154.78,0,0,1,17.7,34.17,205.92,205.92,0,0,0-17.7,14.7c-5.17-4.77-11.16-9.67-17.69-14.7A154.3,154.3,0,0,1,175.66,262.94Zm-46,28.18c27.77,17.29,46.28,35,57.85,48.32-3.26,2.45-6.26,4.9-9,7.22a256.69,256.69,0,0,0-32.94-23.42ZM118.9,321.47a247.39,247.39,0,0,1,51.18,32.81A155.54,155.54,0,0,0,157,367.76c-3-1.91-6-3.82-9.25-5.72A369.42,369.42,0,0,0,118.9,321.47ZM126.79,363a232,232,0,0,1,43.43,27.91,143.17,143.17,0,0,0-10.76,11c-2.86-1.77-5.71-3.4-8.44-5C142.18,383,133.6,371.7,126.79,363Zm15.39,41.79a179.77,179.77,0,0,1,16.74,10.07,76.22,76.22,0,0,0-8.31,1.37C147.62,412,144.9,408.18,142.18,404.78Zm33.48,20.15c26.82,0,46.42,7.89,59.08,24a15.18,15.18,0,0,1-3.81.54,13,13,0,0,1-4.22-.68,5.6,5.6,0,0,0-3.54,10.62,24.81,24.81,0,0,0,7.89,1.22,23.55,23.55,0,0,0,10.08-2,88.48,88.48,0,0,1,6.8,17.15,32.13,32.13,0,0,0-6.67,4.77c-3.26,2.72-5.31,4.62-10.21,4.62s-6.94-1.9-10.2-4.62c-3.82-3.27-8.44-7.35-17.43-7.35s-13.75,4.08-17.42,7.35c-3.27,2.72-5.31,4.62-10.21,4.62s-6.94-1.9-10.21-4.62c-3.81-3.27-8.44-7.35-17.43-7.35s-13.61,4.08-17.42,7.35c-3.27,2.72-5.31,4.62-10.21,4.62s-6.94-1.9-10.21-4.62a31.87,31.87,0,0,0-6.67-4.77,94.46,94.46,0,0,1,6.81-17.15,22.63,22.63,0,0,0,10.07,2c9,0,13.61-4.08,17.43-7.35,3.26-2.72,5.3-4.63,10.2-4.63s7,1.91,10.21,4.63c3.82,3.27,8.44,7.35,17.43,7.35s13.75-4.08,17.42-7.35c3.27-2.72,5.31-4.63,10.21-4.63a5.58,5.58,0,0,0,0-11.16c-9,0-13.75,4.09-17.42,7.35-3.27,2.72-5.31,4.63-10.21,4.63s-6.94-1.91-10.21-4.63c-3.81-3.26-8.44-7.35-17.43-7.35s-13.61,4.09-17.42,7.35c-3.27,2.72-5.31,4.63-10.21,4.63a26.61,26.61,0,0,1-3.81-.41C129.24,432.55,148.85,424.93,175.66,424.93ZM127.2,601.75c4.77-1.36,7.9-4.08,10.62-6.26,3.27-2.72,5.31-4.63,10.21-4.63s6.94,1.91,10.21,4.63c3.81,3.27,8.44,7.35,17.42,7.35s13.75-4.08,17.43-7.35c3.26-2.72,5.3-4.63,10.21-4.63s6.94,1.91,10.2,4.63c2.73,2.32,5.72,5,10.62,6.26-12.25,9.12-28.18,13.48-48.46,13.48S139.45,610.87,127.2,601.75ZM235,591a17.54,17.54,0,0,1-4.08.54c-4.9,0-6.94-1.9-10.21-4.62-3.81-3.27-8.44-7.35-17.42-7.35s-13.75,4.08-17.43,7.35c-3.27,2.72-5.31,4.62-10.21,4.62s-6.94-1.9-10.21-4.62c-3.81-3.27-8.44-7.35-17.42-7.35s-13.61,4.08-17.43,7.35c-3.26,2.72-5.3,4.62-10.2,4.62a17.37,17.37,0,0,1-4-.54h-.14c-6.53-8.44-11.16-18.92-14.29-31.85.27.27.54.41.81.68,3.82,3.26,8.44,7.35,17.43,7.35a34.85,34.85,0,0,0,3.81-.27A5.51,5.51,0,1,0,122.44,556a11.51,11.51,0,0,1-2.18.13c-4.9,0-6.94-1.9-10.21-4.63-2.59-2.17-5.72-4.9-10.48-6.26A219.17,219.17,0,0,1,98.21,521a20.14,20.14,0,0,1,4.62,3.41c3.82,3.26,8.44,7.35,17.43,7.35s13.61-4.09,17.42-7.35c3.27-2.73,5.31-4.63,10.21-4.63s6.94,1.9,10.21,4.63c3.81,3.26,8.44,7.35,17.43,7.35s13.74-4.09,17.42-7.35c3.27-2.73,5.31-4.63,10.21-4.63s6.94,1.9,10.21,4.63c3.81,3.26,8.44,7.35,17.42,7.35s13.75-4.09,17.43-7.35a24.88,24.88,0,0,1,4.62-3.41,221,221,0,0,1-1.36,24.23c-4.76,1.36-7.89,4.09-10.48,6.26-3.27,2.73-5.31,4.63-10.21,4.63s-6.94-1.9-10.21-4.63c-3.81-3.26-8.44-7.35-17.42-7.35s-13.75,4.09-17.43,7.35c-3.26,2.73-5.3,4.63-10.2,4.63s-6.95-1.9-10.21-4.63c-3.82-3.26-8.44-7.35-17.43-7.35a22.7,22.7,0,0,0-6.26.82,5.61,5.61,0,0,0,2.72,10.89,14.17,14.17,0,0,1,3.54-.41c4.9,0,6.94,1.91,10.21,4.63,3.81,3.27,8.44,7.35,17.43,7.35s13.74-4.08,17.42-7.35c3.27-2.72,5.31-4.63,10.21-4.63s6.94,1.91,10.21,4.63c3.81,3.27,8.44,7.35,17.42,7.35s13.75-4.08,17.43-7.35c.27-.27.54-.41.81-.68C246.17,572.08,241.55,582.7,235,591Z" style="fill:#f1a930"/><circle cx="175.54" cy="320.2" r="110.39" style="fill:none;stroke:#f8f0ec;stroke-linecap:round;stroke-linejoin:round;stroke-width:10px"/><path d="M213.13,244.42s29,5.54,33.47,37.48" style="fill:none;stroke:#f8f0ec;stroke-linecap:round;stroke-linejoin:round;stroke-width:10px"/></svg>