<svg id="Layer_1" data-name="Layer 1" xmlns="http://www.w3.org/2000/svg" viewBox="0 0 720 720"><title>SpacePineappleLogo</title><rect x="141.88" y="555.69" width="471.4" height="57.85" style="fill:none"/><text transform="translate(226.65 362.96)" style="isolation:isolate;font-size:60.86439895629883px;fill:#fff;font-family:K2D-ExtraBold, K2D ExtraBold;font-weight:800">Sp<tspan x="73.58" y="0" style="letter-spacing:-0.01498592593767175em">a</tspan><tspan x="105.78" y="0">ce </tspan><tspan x="185.63" y="0" style="letter-spacing:-0.034993902002207804em">P</tspan><tspan x="225.38" y="0" style="letter-spacing:0.000016044888584230997em">in</tspan><tspan x="277.54" y="0" style="letter-spacing:-0.01500197082625598em">e</tspan><tspan x="309.13" y="0" style="letter-spacing:0.000016044888584230997em">app</tspan><tspan x="409.67" y="0" style="letter-spacing:-0.02498189152564766em">l</tspan><tspan x="430.85" y="0">e</tspan></text><path d="M185.24,370.54a39.25,39.25,0,0,0-17.05-13.92,150.39,150.39,0,0,1,13-15.95,3.21,3.21,0,0,0,.47-4,3.17,3.17,0,0,0-3.83-1.25c-1.41.47-2.74,1.09-4.15,1.64a193.26,193.26,0,0,1,16.42-20.26,3.17,3.17,0,0,0-3.36-5.24,116.61,116.61,0,0,0-10.95,4.62A192.29,192.29,0,0,1,194.54,293a3.2,3.2,0,0,0,.47-4,3.16,3.16,0,0,0-3.83-1.25,155.21,155.21,0,0,0-20.73,9.54l11.11-22.13a3.08,3.08,0,0,0-.63-3.68,3.18,3.18,0,0,0-3.75-.47,185,185,0,0,0-17,10.48,106.79,106.79,0,0,0-13-23.23,3.4,3.4,0,0,0-2.58-1.33,3.07,3.07,0,0,0-2.59,1.33,106.31,106.31,0,0,0-13,23.15,195,195,0,0,0-17-10.48,3.18,3.18,0,0,0-3.75.47,3.1,3.1,0,0,0-.63,3.68l9.85,19.71a155,155,0,0,0-16.11-7A3.34,3.34,0,0,0,97.64,289a3.21,3.21,0,0,0,.47,4,183.51,183.51,0,0,1,18.77,23.23,116.61,116.61,0,0,0-10.95-4.62,3.33,3.33,0,0,0-3.83,1.25,3.09,3.09,0,0,0,.47,4A172.65,172.65,0,0,1,119,337.07c-1.41-.55-2.73-1.1-4.14-1.64a3.33,3.33,0,0,0-3.83,1.25,3.19,3.19,0,0,0,.46,4,128.21,128.21,0,0,1,12.21,14.86,39.39,39.39,0,0,0-19.71,15c-7,10.09-10.33,24-10.33,42.71S97,445.94,104,456c8.36,12.2,22,18.3,40.59,18.3s32.22-6.18,40.59-18.3c7-10.09,10.32-24,10.32-42.7S192.12,380.63,185.24,370.54Zm-83.53,23.78,1.17.94c2.19,1.87,4.85,4.22,10,4.22s7.82-2.35,10-4.22c1.88-1.57,3-2.66,5.87-2.66s4,1.09,5.86,2.66c2.19,1.87,4.85,4.22,10,4.22s7.89-2.35,10-4.22c1.87-1.57,3.05-2.66,5.86-2.66s4,1.09,5.87,2.66c2.19,1.87,4.85,4.22,10,4.22s7.9-2.35,10-4.22c.47-.39.78-.71,1.17-1A100.39,100.39,0,0,1,189,407a15,15,0,0,0-6.73,3.83c-1.87,1.56-3,2.66-5.86,2.66s-4-1.1-5.87-2.66c-2.19-1.88-4.85-4.22-10-4.22s-7.9,2.34-10,4.22c-1.88,1.56-3,2.66-5.87,2.66s-4-1.1-5.86-2.66c-2.19-1.88-4.85-4.22-10-4.22s-7.82,2.34-10,4.22c-1.88,1.56-3.05,2.66-5.87,2.66s-4-1.1-5.86-2.66A15.73,15.73,0,0,0,100.3,407,99.07,99.07,0,0,1,101.71,394.32ZM157,353.26a105.56,105.56,0,0,1,10.25-6.18c-1.72,2.11-3.44,4.54-5.32,7.35A44.45,44.45,0,0,0,157,353.26Zm5.32-10.72a109.1,109.1,0,0,0-14.7,9.78c-.86-.08-1.72-.08-2.66-.08-1.41-1.09-2.9-2.19-4.38-3.28a102.08,102.08,0,0,1,11.1-10.25,125.59,125.59,0,0,1,24.48-15.56A225.93,225.93,0,0,0,162.32,342.54Zm1.72-20.1a128.59,128.59,0,0,0-17.67,12.44c-2-1.72-4.38-3.6-7-5.48a108.6,108.6,0,0,1,13.06-12.35,143.56,143.56,0,0,1,28.31-17.83A224.89,224.89,0,0,0,164,322.44Zm-3.75-19.08c-1.25.78-2.51,1.72-3.68,2.5-2-2.34-4.46-5-7.35-7.82A161,161,0,0,1,171,281.85Zm-15.64-37.77a88.8,88.8,0,0,1,10.16,19.63,117.79,117.79,0,0,0-10.16,8.44c-3-2.73-6.42-5.55-10.17-8.44A88.43,88.43,0,0,1,144.65,265.59Zm-26.44,16.19a145.73,145.73,0,0,1,33.24,27.76c-1.88,1.41-3.6,2.82-5.16,4.14a149,149,0,0,0-18.93-13.45ZM112,299.22a142.49,142.49,0,0,1,29.41,18.84,88.36,88.36,0,0,0-7.51,7.75c-1.72-1.1-3.44-2.19-5.32-3.29A212.38,212.38,0,0,0,112,299.22Zm4.54,23.85a133.48,133.48,0,0,1,25,16,80,80,0,0,0-6.18,6.34c-1.64-1-3.29-2-4.85-2.9C125.41,334.57,120.48,328.08,116.57,323.07Zm8.84,24a102.2,102.2,0,0,1,9.62,5.79,42.59,42.59,0,0,0-4.78.78C128.53,351.23,127,349,125.41,347.08Zm19.24,11.57c15.4,0,26.66,4.54,33.94,13.77a8.55,8.55,0,0,1-2.19.31,7.41,7.41,0,0,1-2.43-.39,3.21,3.21,0,0,0-2,6.1,14.12,14.12,0,0,0,4.54.71,13.43,13.43,0,0,0,5.78-1.18,49.92,49.92,0,0,1,3.91,9.86,19,19,0,0,0-3.83,2.73c-1.88,1.57-3.05,2.66-5.86,2.66s-4-1.09-5.87-2.66c-2.19-1.87-4.85-4.22-10-4.22s-7.9,2.35-10,4.22c-1.88,1.57-3.05,2.66-5.87,2.66s-4-1.09-5.86-2.66c-2.19-1.87-4.85-4.22-10-4.22s-7.82,2.35-10,4.22c-1.88,1.57-3,2.66-5.87,2.66s-4-1.09-5.87-2.66a18.43,18.43,0,0,0-3.83-2.73,54.76,54.76,0,0,1,3.91-9.86,13,13,0,0,0,5.79,1.18c5.16,0,7.82-2.35,10-4.23,1.88-1.56,3-2.66,5.87-2.66s4,1.1,5.86,2.66c2.19,1.88,4.85,4.23,10,4.23s7.9-2.35,10-4.23c1.88-1.56,3.05-2.66,5.87-2.66a3.21,3.21,0,1,0,0-6.41c-5.16,0-7.9,2.35-10,4.22-1.88,1.57-3.05,2.66-5.87,2.66s-4-1.09-5.86-2.66c-2.19-1.87-4.85-4.22-10-4.22s-7.82,2.35-10,4.22c-1.88,1.57-3,2.66-5.87,2.66a15.54,15.54,0,0,1-2.19-.23C118,363,129.24,358.65,144.65,358.65ZM116.8,460.25a16.73,16.73,0,0,0,6.1-3.6c1.88-1.56,3-2.66,5.87-2.66s4,1.1,5.86,2.66c2.19,1.88,4.85,4.22,10,4.22s7.89-2.34,10-4.22c1.87-1.56,3.05-2.66,5.86-2.66s4,1.1,5.87,2.66a14.27,14.27,0,0,0,6.1,3.6c-7,5.24-16.19,7.74-27.85,7.74S123.84,465.49,116.8,460.25Zm61.94-6.18a9.76,9.76,0,0,1-2.34.31c-2.82,0-4-1.09-5.87-2.66-2.19-1.87-4.85-4.22-10-4.22s-7.9,2.35-10,4.22c-1.88,1.57-3,2.66-5.86,2.66s-4-1.09-5.87-2.66c-2.19-1.87-4.85-4.22-10-4.22s-7.82,2.35-10,4.22c-1.88,1.57-3.05,2.66-5.87,2.66a9.8,9.8,0,0,1-2.27-.31h-.07c-3.76-4.85-6.42-10.87-8.22-18.3.16.16.32.23.47.39,2.19,1.88,4.85,4.22,10,4.22a18.69,18.69,0,0,0,2.19-.15,3.16,3.16,0,0,0-.93-6.26,6.31,6.31,0,0,1-1.26.08c-2.81,0-4-1.1-5.86-2.66a15.85,15.85,0,0,0-6-3.6,126,126,0,0,1-.79-13.92,11.62,11.62,0,0,1,2.66,2c2.19,1.87,4.85,4.22,10,4.22s7.82-2.35,10-4.22c1.88-1.57,3.05-2.66,5.87-2.66s4,1.09,5.87,2.66c2.19,1.87,4.84,4.22,10,4.22s7.9-2.35,10-4.22c1.87-1.57,3-2.66,5.86-2.66s4,1.09,5.87,2.66c2.19,1.87,4.85,4.22,10,4.22s7.9-2.35,10-4.22a14.15,14.15,0,0,1,2.66-2,127.22,127.22,0,0,1-.78,13.92,15.69,15.69,0,0,0-6,3.6c-1.88,1.56-3.05,2.66-5.87,2.66s-4-1.1-5.87-2.66c-2.19-1.88-4.84-4.22-10-4.22s-7.9,2.34-10,4.22c-1.87,1.56-3.05,2.66-5.86,2.66s-4-1.1-5.87-2.66c-2.19-1.88-4.85-4.22-10-4.22a12.71,12.71,0,0,0-3.6.47,3.22,3.22,0,1,0,1.57,6.25,8.34,8.34,0,0,1,2-.23c2.82,0,4,1.09,5.87,2.66,2.19,1.87,4.84,4.22,10,4.22s7.9-2.35,10-4.22c1.87-1.57,3-2.66,5.86-2.66s4,1.09,5.87,2.66c2.19,1.87,4.85,4.22,10,4.22s7.9-2.35,10-4.22c.16-.16.31-.24.47-.39C185.16,443.2,182.5,449.3,178.74,454.07Z" style="fill:#f1a930"/><circle cx="144.58" cy="298.49" r="63.42" style="fill:none;stroke:#f8f0ec;stroke-linecap:round;stroke-linejoin:round;stroke-width:6px"/><path d="M166.17,255a25.26,25.26,0,0,1,19.23,21.53" style="fill:none;stroke:#f8f0ec;stroke-linecap:round;stroke-linejoin:round;stroke-width:6px"/></svg>